<?xml version="1.0" encoding="UTF-8"?> <svg xmlns="http://www.w3.org/2000/svg" width="336" height="189" viewbox="0 0 336 189" preserveAspectRatio="xMidYMid meet"> <style> .st1{fill-rule:evenodd;clip-rule:evenodd}.st1,.st2{fill:#c1272d} </style> <path fill="#f5f5f5" opacity="0" d="M0 0h336v189H0V0z"></path> <g> <path d="M157.2 87.6c-.8-4.7-5.2-7.9-10.1-7.2-2.6.4-4.6 1.7-6.1 3.9-1.2 1.9-1.8 3.9-1.3 6.1.3 1.2.8 2.3 1.3 3.5 1.5 3 3.4 5.6 5.4 8.3.6.8 1.2 1.6 1.9 2.4l.2-.2c1.3-1.6 2.6-3.3 3.8-4.9 1.6-2.2 3-4.5 4.1-7 .8-1.6 1.1-3.2.8-4.9zm-8.8 8.1c-3.6 0-6.6-3-6.5-6.6 0-2.8 1.8-5.2 4.2-6.1.7-.3 1.5-.5 2.3-.5.9 0 1.7.2 2.4.5 2.5 1 4.2 3.4 4.2 6.2 0 3.6-2.9 6.5-6.6 6.5z" class="st1"></path> <g id="OfyMc2_1_"> <g> <path d="M148.4 87.1c.5-.8 1.1-1.2 2-1.3 1-.1 2 .4 2.4 1.3.3.7.3 1.3 0 2-.3.9-.9 1.6-1.6 2.2-.9.8-1.8 1.5-2.7 2.2-.1.1-.1.1-.2 0-.9-.7-1.8-1.5-2.7-2.2-.7-.6-1.3-1.3-1.6-2.2-.2-.7-.3-1.4 0-2 .4-.9 1.4-1.4 2.4-1.3.7.1 1.3.4 1.8.9.1.1.2.3.2.4z" class="st1"></path> </g> </g> <path d="M41.4 90.5c0-.5-.3-.7-.7-.7h-1.3v-3.5h3.7c1.5 0 2.2.6 2.2 2v1c0 .6-.1 1-.1 1h.1c.7-2.4 2.7-4.2 5.2-4.2.4 0 .7.1.7.1v4s-.4-.1-1-.1c-1.7 0-3.7 1-4.5 3.5-.2.8-.4 1.7-.4 2.7v6.5h-4.1V90.5zM60.6 85.9c4.7 0 7.3 3.5 7.3 7.8 0 .5-.1 1.5-.1 1.5H56.5c.3 2.9 2.5 4.4 4.9 4.4 2.6 0 4.6-1.8 4.6-1.8l1.7 2.8s-2.5 2.5-6.6 2.5c-5.5 0-8.8-3.9-8.8-8.6 0-5.1 3.4-8.6 8.3-8.6zm3.1 6.5c-.1-2-1.4-3.3-3.1-3.3-2.1 0-3.6 1.3-4 3.3h7.1zM71.4 84c0-.5-.3-.7-.7-.7h-1.3v-3.5h3.9c1.5 0 2.2.7 2.2 2.2v16.6c0 .5.3.7.7.7h1.3v3.5h-3.9c-1.5 0-2.2-.6-2.2-2.2V84zM89.5 92.4h.5v-.1c0-2.4-.9-3.2-3-3.2-.7 0-2.2.2-2.2 1.1v.8H81v-1.7c0-3.1 4.3-3.4 6-3.4 5.5 0 7.1 2.9 7.1 6.6v6.1c0 .5.3.7.7.7h1.3v3.5h-3.7c-1.5 0-2.1-.8-2.1-1.8v-.7h-.1s-1.3 2.9-5 2.9c-2.9 0-5.6-1.8-5.6-5.1.1-5.3 7.2-5.7 9.9-5.7zm-3.1 7.5c2.2 0 3.7-2.3 3.7-4.3v-.4h-.7c-2.1 0-5.5.3-5.5 2.6 0 1.1.8 2.1 2.5 2.1zM99.5 89.5h-2.1v-3.3h2.2v-4.5h4v4.5h3.7v3.3h-3.7v6.6c0 2.7 2.1 3.1 3.3 3.1.5 0 .7-.1.7-.1v3.6s-.5.1-1.3.1c-2.3 0-6.8-.7-6.8-6.2v-7.1zM112.6 90.5c0-.5-.3-.7-.7-.7h-1.3v-3.5h3.9c1.5 0 2.2.7 2.2 2.2v10.1c0 .5.3.7.7.7h1.3v3.5h-3.9c-1.5 0-2.2-.6-2.2-2.2V90.5zm.2-10.7h3.6v3.8h-3.6v-3.8zM128.9 85.9c4.7 0 7.3 3.5 7.3 7.8 0 .5-.1 1.5-.1 1.5h-11.4c.3 2.9 2.5 4.4 4.9 4.4 2.6 0 4.6-1.8 4.6-1.8l1.7 2.8s-2.5 2.5-6.6 2.5c-5.5 0-8.8-3.9-8.8-8.6 0-5.1 3.4-8.6 8.4-8.6zm3.1 6.5c-.1-2-1.4-3.3-3.1-3.3-2.1 0-3.6 1.3-4 3.3h7.1zM163.3 90.5c0-.5-.3-.7-.7-.7h-1.3v-3.5h3.6c1.5 0 2.1.7 2.1 1.6v.6h.1s1.4-2.6 5.2-2.6c4.5 0 7.3 3.5 7.3 8.6 0 5.2-3.2 8.6-7.6 8.6-3.3 0-4.7-2.2-4.7-2.2h-.1s.1.6.1 1.4v6.8h-4.1V90.5zm8 9.2c2.3 0 4.2-1.8 4.2-5.1 0-3.1-1.7-5.2-4.1-5.2-2.1 0-4.1 1.6-4.1 5.2-.1 2.5 1.3 5.1 4 5.1zM183 84c0-.5-.3-.7-.7-.7H181v-3.5h3.9c1.5 0 2.2.7 2.2 2.2v16.6c0 .5.3.7.7.7h1.3v3.5h-3.9c-1.5 0-2.2-.6-2.2-2.2V84zM201.2 92.4h.5v-.1c0-2.4-.9-3.2-3-3.2-.7 0-2.2.2-2.2 1.1v.8h-3.8v-1.7c0-3.1 4.3-3.4 6-3.4 5.5 0 7.1 2.9 7.1 6.6v6.1c0 .5.3.7.7.7h1.3v3.5h-3.7c-1.5 0-2.1-.8-2.1-1.8v-.7s-1.3 2.9-5 2.9c-2.9 0-5.6-1.8-5.6-5.1.1-5.3 7.2-5.7 9.8-5.7zm-3.1 7.5c2.2 0 3.7-2.3 3.7-4.3v-.4h-.7c-2.1 0-5.5.3-5.5 2.6 0 1.1.8 2.1 2.5 2.1zM211.8 90.5c0-.5-.3-.7-.7-.7h-1.3v-3.5h3.8c1.5 0 2.2.7 2.2 1.8v.5c0 .4-.1.7-.1.7h.1c.7-1.4 2.5-3.4 5.8-3.4 3.6 0 5.7 1.9 5.7 6.3v6.4c0 .5.3.7.7.7h1.3v3.5h-3.9c-1.5 0-2.2-.6-2.2-2.2V93c0-2-.5-3.4-2.6-3.4-2.2 0-3.8 1.4-4.4 3.4-.2.7-.3 1.4-.3 2.2v7.6h-4.1V90.5zM239.2 85.9c4.7 0 7.3 3.5 7.3 7.8 0 .5-.1 1.5-.1 1.5H235c.3 2.9 2.5 4.4 4.9 4.4 2.6 0 4.6-1.8 4.6-1.8l1.7 2.8s-2.5 2.5-6.6 2.5c-5.5 0-8.8-3.9-8.8-8.6.1-5.1 3.5-8.6 8.4-8.6zm3.1 6.5c-.1-2-1.4-3.3-3.1-3.3-2.1 0-3.6 1.3-4 3.3h7.1zM250.6 89.5h-2.1v-3.3h2.2v-4.5h4v4.5h3.7v3.3h-3.7v6.6c0 2.7 2.1 3.1 3.3 3.1.5 0 .7-.1.7-.1v3.6s-.5.1-1.3.1c-2.3 0-6.8-.7-6.8-6.2v-7.1zM262.1 98.6h4v4.1h-4v-4.1zM269.9 90.5c0-.5-.3-.7-.7-.7h-1.3v-3.5h3.8c1.5 0 2.2.7 2.2 1.8v.5c0 .4-.1.7-.1.7h.1c.7-1.4 2.5-3.4 5.8-3.4 3.6 0 5.7 1.9 5.7 6.3v6.4c0 .5.3.7.7.7h1.3v3.5h-3.9c-1.5 0-2.2-.6-2.2-2.2V93c0-2-.5-3.4-2.6-3.4-2.2 0-3.8 1.4-4.4 3.4-.2.7-.3 1.4-.3 2.2v7.6h-4.1V90.5zM290.5 84c0-.5-.3-.7-.7-.7h-1.3v-3.5h3.9c1.5 0 2.2.7 2.2 2.2v16.6c0 .5.3.7.7.7h1.3v3.5h-3.9c-1.5 0-2.2-.6-2.2-2.2V84z" fill="st2"></path> </g> </svg> 